<?xml version="1.0" standalone="no"?><!DOCTYPE svg PUBLIC "-//W3C//DTD SVG 1.1//EN" "http://www.w3.org/Graphics/SVG/1.1/DTD/svg11.dtd"><svg t="1638131824169" class="icon" viewBox="0 0 1024 1024" version="1.1" xmlns="http://www.w3.org/2000/svg" p-id="1026" xmlns:xlink="http://www.w3.org/1999/xlink" width="128" height="128"><defs><style type="text/css"></style></defs><path d="M189.6056608 599.65851307a103.552 38.64533333 73.303 1 0 74.03190187-22.20641067 103.552 38.64533333 73.303 1 0-74.03190187 22.20641067Z" fill="#5DA723" p-id="1027"></path><path d="M252.128 708.11733333c-11.62666667 0-28.24533333-5.68533333-46.41066667-29.64266666-13.984-18.47466667-26.432-44.43733333-35.008-73.152-8.66133333-28.672-12.55466667-57.23733333-11.01866666-80.34133334 2.624-40.032 20.864-51.392 31.53066666-54.57066666 10.66666667-3.21066667 32.07466667-3.82933333 56.34133334 28.17066666 13.984 18.47466667 26.432 44.43733333 35.008 73.152 14.21866667 47.33866667 15.11466667 91.50933333 2.31466666 115.27466667-6.83733333 12.64-16.192 17.664-22.88 19.66933333-2.656 0.77866667-5.97333333 1.44-9.87733333 1.44zM200.84266667 508.48c-1.58933333 3.86133333-7.22133333 35.62666667 7.73333333 85.48266667 14.95466667 49.81333333 37.14133333 73.22666667 43.86133333 74.624 1.58933333-3.86133333 7.22133333-35.62666667-7.73333333-85.48266667-14.95466667-49.81333333-37.13066667-73.23733333-43.86133333-74.624z" fill="#000000" p-id="1028"></path><path d="M729.24740587 492.81652267a38.64533333 103.552 16.697 1 0 59.5031264-198.37198614 38.64533333 103.552 16.697 1 0-59.5031264 198.37198614Z" fill="#5DA723" p-id="1029"></path><path d="M733.792 513.26933333c-3.36 0-6.76266667-0.50133333-10.19733333-1.54666666-10.66666667-3.168-28.90666667-14.528-31.53066667-54.528-1.54666667-23.14666667 2.35733333-51.66933333 11.01866667-80.384 8.576-28.71466667 21.024-54.67733333 35.008-73.152 24.26666667-31.95733333 45.792-31.33866667 56.34133333-28.17066667 6.61333333 1.97333333 16 6.99733333 22.83733333 19.62666667 12.78933333 23.72266667 11.936 67.89333333-2.28266666 115.27466666-15.584 51.82933333-46.73066667 102.88-81.19466667 102.88z m47.72266667-200.68266666c-3.43466667 2.35733333-25.62133333 25.77066667-40.576 75.584-14.95466667 49.856-9.312 81.62133333-4.448 86.44266666 3.43466667-2.35733333 25.62133333-25.77066667 40.61866666-75.584 14.912-49.84533333 9.26933333-81.61066667 4.40533334-86.44266666z m14.528 92.128h0.384-0.384z" fill="#000000" p-id="1030"></path><path d="M401.58933333 328.81066667c-5.55733333-43.98933333-8.58666667-114.80533333 15.01866667-196.33066667 14.25066667-49.22666667 34.26133333-88.68266667 52.05333333-117.728a685.6576 685.6576 0 0 0-17.12 130.656c-2.16533333 63.872 4.93866667 118.72 13.62133334 161.04533333" fill="#5DA723" p-id="1031"></path><path d="M401.55733333 348.608c-9.81333333 0-18.31466667-7.30666667-19.59466666-17.312-8.768-69.44-3.52-138.18666667 15.616-204.30933333 12.448-42.89066667 30.64533333-84.128 54.176-122.53866667 5.06666667-8.26666667 15.38133333-11.712 24.384-8 8.97066667 3.66933333 13.952 13.29066667 11.78666666 22.76266667-9.57866667 41.57866667-15.14666667 84.288-16.61866666 126.912-1.78133333 52.32 2.66666667 104.91733333 13.25866666 156.352 2.16533333 10.70933333-4.71466667 21.17333333-15.424 23.38133333-10.47466667 2.048-21.14133333-4.672-23.38133333-15.424-10.624-51.78666667-15.424-104.68266667-14.26133333-157.44-14.26133333 56.26666667-17.73866667 114.50666667-10.28266667 173.35466667 1.35466667 10.816-6.304 20.71466667-17.16266667 22.10133333-0.832 0.11733333-1.64266667 0.16-2.496 0.16z" fill="#000000" p-id="1032"></path><path d="M624.704 299.81866667c6.34666667-33.20533333 9.80266667-86.64533333-17.16266667-148.18133334-16.27733333-37.152-39.12533333-66.93333333-59.456-88.85333333 9.46133333 27.12533333 17.58933333 60.416 19.552 98.61333333 2.47466667 48.20266667-5.64266667 89.6-15.56266666 121.54666667" fill="#5DA723" p-id="1033"></path><path d="M624.736 319.584c-1.23733333 0-2.50666667-0.11733333-3.78666667-0.352-10.70933333-2.09066667-17.73866667-12.448-15.69066666-23.18933333 8.88533333-46.29333333 3.552-92.20266667-15.84-136.448-0.768-1.78133333-1.54666667-3.52-2.35733334-5.25866667 0.14933333 2.00533333 0.26666667 4.02133333 0.352 6.02666667 2.208 43.008-3.328 86.25066667-16.42666666 128.45866666-3.24266667 10.4-14.18666667 16.30933333-24.768 13.024-10.432-3.24266667-16.26666667-14.336-13.024-24.768 11.744-37.71733333 16.69333333-76.32 14.72-114.69866666-1.62133333-31.264-7.84-62.56-18.47466667-93.056-3.09333333-8.85333333 0.42666667-18.66666667 8.45866667-23.49866667 8.04266667-4.75733333 18.35733333-3.36 24.69333333 3.52 27.36 29.45066667 48.576 61.216 63.072 94.368 22.688 51.70133333 28.90666667 105.504 18.47466667 159.82933333-1.824 9.472-10.13333333 16.04266667-19.40266667 16.04266667z" fill="#000000" p-id="1034"></path><path d="M844.65066667 643.22133333c0 54.496-9.81333333 106.09066667-27.97866667 152.23466667-2.912 8.352-6.53866667 16.71466667-10.176 24.704-28.704 62.12266667-72.29866667 112.992-124.98133333 146.784a278.24426667 278.24426667 0 0 1-67.584 31.24266667c-25.06666667 7.98933333-51.232 11.98933333-78.47466667 11.98933333-36.33066667 0-71.21066667-7.62666667-103.54133333-21.07733333-70.48533333-29.792-129.344-89.376-165.312-165.67466667-2.53866667-4.72533333-4.72533333-9.45066667-6.53866667-14.528-21.44-49.77066667-33.42933333-106.09066667-33.42933333-165.67466667 0-27.616 2.53866667-54.496 7.62666666-80.29866666 2.176-11.98933333 4.72533333-23.616 7.98933334-35.24266667 19.25333333-68.29866667 54.496-127.52 101.00266666-170.76266667 49.04533333-46.86933333 110.09066667-75.936 176.576-79.936 5.088-0.36266667 9.81333333-0.36266667 14.89066667-0.36266666h0.72533333c69.03466667 0 132.97066667 26.89066667 184.20266667 72.29866666 47.59466667 41.78133333 84.65066667 99.552 105.36533333 166.4 6.90133333 21.44 11.98933333 43.59466667 15.264 66.848 2.92266667 19.63733333 4.37333333 40.34133333 4.37333334 61.056z" fill="#F11754" p-id="1035"></path><path d="M241.9808 798.79786667l463.7824-463.7824 27.97546667 27.9744L269.95626667 826.77333333zM367.33333333 945.21386667l443.78666667-443.78666667 27.97546667 27.9744-443.78666667 443.78666667zM599.95733333 984.18773333l202.7232-202.72426666 27.97546667 27.9744-202.72533333 202.72533333zM220.1952 548.848l285.75146667-285.75146667 27.9744 27.9744L248.17066667 576.8224z" fill="#F485A4" p-id="1036"></path><path d="M329.25546667 370.93333333l27.97546666-27.97333333 463.24586667 463.24586667-27.9744 27.97546666zM667.50933333 980.93866667l-445.024-444.90666667v-8.352l19.936-0.192 13.64266667-13.984L269.86666667 526.95466667 695.488 952.96zM417.83466667 1003.008L252.97066667 838.18666667l28.37333333-27.66933334 0.34133333 0.39466667 164.27733334 164.27733333zM520.73493333 290.6112l27.9744-27.9744 305.55733334 305.55733333-27.9744 27.9744z" fill="#F485A4" p-id="1037"></path><path d="M840.288 582.176c-3.27466667-23.25333333-8.36266667-45.41866667-15.264-66.848-20.704-66.848-57.77066667-124.61866667-105.36533333-166.4-51.232-45.41866667-115.168-72.29866667-184.20266667-72.29866667h-0.72533333c-5.088 0-9.81333333 0-14.89066667 0.36266667-8.45866667 0.512-16.832 1.44-25.10933333 2.752 54.22933333 7.98933333 104.224 32.34133333 145.792 69.184 47.59466667 41.78133333 84.65066667 99.552 105.36533333 166.4 6.90133333 21.44 11.98933333 43.60533333 15.264 66.848 2.90133333 19.62666667 4.36266667 40.33066667 4.36266667 61.04533333 0 54.496-9.81333333 106.09066667-27.97866667 152.23466667-2.912 8.352-6.53866667 16.71466667-10.176 24.704-28.704 62.12266667-72.29866667 112.992-124.98133333 146.784a278.24426667 278.24426667 0 0 1-67.584 31.24266667c-12.288 3.91466667-24.864 6.816-37.67466667 8.81066666 12.58666667 1.87733333 25.33333333 3.17866667 38.336 3.17866667 27.25333333 0 53.408-4 78.47466667-11.98933333 23.616-7.264 46.50666667-17.80266667 67.584-31.24266667 52.68266667-33.792 96.27733333-84.65066667 124.98133333-146.784 3.63733333-7.98933333 7.264-16.352 10.176-24.704 18.16533333-46.144 27.97866667-97.73866667 27.97866667-152.23466667 0-20.71466667-1.45066667-41.41866667-4.36266667-61.04533333z" fill="#B70E3E" p-id="1038"></path><path d="M594.944 788.07466667c-0.128-1.10933333 0.10666667-2.18666667-0.26666667-3.30666667l-43.54133333-130.208c-4.97066667-14.86933333-26.00533333-14.86933333-30.98666667 0l-43.54133333 130.208c-0.37333333 1.12-0.13866667 2.19733333-0.26666667 3.30666667" fill="#69BD50" p-id="1039"></path><path d="M595.05066667 808.36266667c-10.048 0-18.74133333-8.04266667-19.78666667-18.24-0.04266667-0.30933333-0.07466667-0.768-0.07466667-1.28l-39.53066666-118.25066667-40.26666667 120.416-0.192-0.04266667c-2.90133333 8.928-11.59466667 16.14933333-20.832 14.99733334-10.85866667-1.12-18.816-9.04533333-17.696-19.936-0.04266667-2.24 0.50133333-5.6 1.23733333-7.73333334l43.47733334-129.99466666c4.98133333-14.95466667 18.432-24.65066667 34.24-24.69333334h0.04266666c15.808 0 29.25866667 9.696 34.24 24.65066667l43.552 130.22933333c0.69333333 2.048 1.28 6.37866667 1.23733334 8.544 1.12 10.90133333-6.80533333 20.096-17.664 21.216-0.66133333 0.07466667-1.32266667 0.11733333-1.984 0.11733334z" fill="#000000" p-id="1040"></path><path d="M492.45866667 530.944c-0.128-1.10933333 0.10666667-2.18666667-0.26666667-3.30666667L448.65066667 397.44c-4.97066667-14.86933333-26.00533333-14.86933333-30.98666667 0l-43.54133333 130.208c-0.37333333 1.12-0.13866667 2.19733333-0.26666667 3.30666667" fill="#5DA723" p-id="1041"></path><path d="M492.56533333 551.25333333c-10.00533333 0-18.69866667-8.04266667-19.78666666-18.19733333a10.12266667 10.12266667 0 0 1-0.07466667-1.312L433.17333333 413.49333333 393.6 531.776c-0.04266667 0.768-0.11733333 1.54666667-0.14933333 1.93066667-1.58933333 10.816-11.82933333 18.09066667-22.37866667 16.81066666-10.816-1.54666667-18.35733333-11.552-16.81066667-22.37866666 0-2.00533333 0.384-4.48 0.97066667-6.37866667l43.66933333-130.58133333c5.024-14.99733333 18.47466667-24.69333333 34.28266667-24.69333334s29.25866667 9.696 34.24 24.65066667l43.552 130.22933333c0.69333333 2.048 1.28 6.336 1.23733333 8.544 1.16266667 10.85866667-6.72 20.05333333-17.57866666 21.216-0.71466667 0.096-1.36533333 0.128-2.06933334 0.128z" fill="#000000" p-id="1042"></path><path d="M453.52533333 997.06666667l-25.06666666-84.65066667-13.44-46.144c-4.36266667-14.90133333-25.42933333-15.62666667-30.88-1.088l-20.71466667 54.85866667-7.98933333 21.07733333" fill="#5DA723" p-id="1043"></path><path d="M453.536 1016.84266667c-8.544 0-16.42666667-5.568-18.976-14.18666667l-35.59466667-120.72533333-25.04533333 66.19733333c-3.904 10.24-15.38133333 15.18933333-25.54666667 11.47733333-10.19733333-3.904-15.33866667-15.30666667-11.47733333-25.54666666l28.71466667-75.86133334c5.48266667-14.688 19.31733333-23.808 35.09333333-23.30666666 15.808 0.576 28.864 10.70933333 33.26933333 25.81333333l38.528 130.73066667c3.09333333 10.47466667-2.85866667 21.48266667-13.376 24.576-1.83466667 0.56533333-3.73333333 0.832-5.58933333 0.832z m-50.848-144.72533334l-0.04266667 0.04266667 0.04266667-0.04266667z" fill="#000000" p-id="1044"></path><path d="M825.20533333 771.808l-47.59466666-125.344c-5.45066667-14.528 10.90133333-27.97866667 23.97866666-19.616l42.86933334 27.25333333" fill="#5DA723" p-id="1045"></path><path d="M825.216 791.584c-7.95733333 0-15.49866667-4.864-18.50666667-12.75733333l-47.60533333-125.32266667c-5.568-14.83733333-1.16266667-30.88 11.168-40.84266667 12.288-9.97333333 28.74666667-10.93333333 41.96266667-2.50666666l42.85866666 27.24266666c9.19466667 5.87733333 11.936 18.09066667 6.06933334 27.31733334-5.83466667 9.23733333-18.12266667 11.904-27.31733334 6.06933333l-34.048-21.64266667L843.73333333 764.768c3.86133333 10.24-1.28 21.64266667-11.47733333 25.54666667-2.32533333 0.84266667-4.68266667 1.26933333-7.04 1.26933333z" fill="#000000" p-id="1046"></path><path d="M535.46666667 1029.94133333c-37.71733333 0-75.12533333-7.616-111.17866667-22.57066666-74.85866667-31.648-137.152-93.984-175.56266667-175.52-2.54933333-4.59733333-5.14133333-10.28266667-7.30666666-16.26666667-22.76266667-52.864-34.54933333-111.22133333-34.54933334-172.352 0-29.056 2.70933333-57.344 8-84.128 2.208-12.288 4.90666667-24.544 8.352-36.78933333 20.17066667-71.60533333 57.03466667-133.824 106.53866667-179.89333334 53.90933333-51.50933333 119.296-81.00266667 188.896-85.17333333 5.25866667-0.42666667 10.47466667-0.42666667 16.07466667-0.42666667 72.768 0 141.01333333 26.74133333 198.09066666 77.29066667 51.008 44.864 89.46133333 105.504 111.104 175.328 7.14666667 22.144 12.52266667 45.76 15.95733334 69.94133333 3.01866667 20.48 4.56533333 42.00533333 4.56533333 63.84 0 56.34133333-9.888 109.984-29.36533333 159.488-2.784 8.14933333-6.64533333 17.07733333-10.54933334 25.62133334-30.26133333 65.46133333-76.01066667 119.136-132.352 155.27466666-22.60266667 14.37866667-46.95466667 25.664-72.384 33.46133334-26.70933333 8.55466667-55.11466667 12.87466667-84.33066666 12.87466666z m-1.504-733.54666666c-4.64 0-8.50133333 0-12.59733334 0.352-60.43733333 3.59466667-117.20533333 29.36533333-164.42666666 74.464C312.53333333 412.52266667 279.53066667 468.43733333 261.33333333 533.056c-3.12533333 11.01866667-5.52533333 22.02666667-7.57333333 33.38666667-4.864 24.576-7.30666667 50.31466667-7.30666667 76.78933333 0 55.72266667 10.70933333 108.82133333 31.76533334 157.86666667 1.93066667 5.25866667 3.744 9.07733333 5.792 12.90666666 34.784 73.696 89.84533333 129.06666667 155.584 156.85333334 55.18933333 22.95466667 115.70133333 25.312 168.33066666 8.45866666 22.29333333-6.83733333 43.40266667-16.61866667 62.95466667-29.056 49.93066667-32.032 90.656-79.91466667 117.67466667-138.42133333 3.328-7.33866667 6.72-15.11466667 9.42933333-22.88 17.93066667-45.6 26.90133333-94.368 26.90133333-145.728 0-19.936-1.38666667-39.49866667-4.17066666-58.15466667-3.12533333-22.41066667-7.88266667-43.168-14.496-63.69066666-19.552-63.072-53.984-117.51466667-99.584-157.58933334-50.176-44.48-111.34933333-68.24533333-172.672-67.40266666z" fill="#000000" p-id="1047"></path><path d="M320.56533333 565.632c-1.78133333 0-3.59466667-0.23466667-5.376-0.736-10.50666667-2.976-16.65066667-13.90933333-13.68533333-24.42666667 16.42666667-58.24 44.52266667-111.37066667 81.19466667-153.61066666 7.22133333-8.23466667 19.66933333-9.07733333 27.936-1.97333334 8.23466667 7.18933333 9.12 19.66933333 1.97333333 27.936-32.928 37.86666667-58.15466667 85.71733333-73.00266667 138.38933334-2.464 8.74666667-10.38933333 14.42133333-19.04 14.42133333z" fill="#FFFFFF" p-id="1048"></path></svg>